<svg xmlns="http://www.w3.org/2000/svg" xmlns:xlink="http://www.w3.org/1999/xlink" width="0" height="0" style="display:none;"><symbol viewBox="0 0 448 512" id="my-icon-external-link"><!--! Font Awesome Pro 6.2.0 by @fontawesome - https://fontawesome.com License - https://fontawesome.com/license (Commercial License) Copyright 2022 Fonticons, Inc. --><path d="M288 32c-17.7 0-32 14.3-32 32s14.3 32 32 32h50.7L169.4 265.4c-12.5 12.5-12.5 32.8 0 45.3s32.8 12.5 45.3 0L384 141.3V192c0 17.7 14.3 32 32 32s32-14.3 32-32V64c0-17.7-14.3-32-32-32H288zM80 64C35.8 64 0 99.8 0 144V400c0 44.2 35.8 80 80 80H336c44.2 0 80-35.8 80-80V320c0-17.7-14.3-32-32-32s-32 14.3-32 32v80c0 8.8-7.2 16-16 16H80c-8.8 0-16-7.2-16-16V144c0-8.8 7.2-16 16-16h80c17.7 0 32-14.3 32-32s-14.3-32-32-32H80z"></path></symbol><symbol viewBox="0 0 576 512" id="my-icon-home"><!--! Font Awesome Pro 6.2.0 by @fontawesome - https://fontawesome.com License - https://fontawesome.com/license (Commercial License) Copyright 2022 Fonticons, Inc. --><path d="M575.8 255.5c0 18-15 32.1-32 32.1h-32l.7 160.2c0 2.7-.2 5.4-.5 8.1V472c0 22.1-17.9 40-40 40H456c-1.1 0-2.2 0-3.3-.1c-1.4 .1-2.8 .1-4.2 .1H416 392c-22.1 0-40-17.9-40-40V448 384c0-17.7-14.3-32-32-32H256c-17.7 0-32 14.3-32 32v64 24c0 22.1-17.9 40-40 40H160 128.1c-1.5 0-3-.1-4.5-.2c-1.2 .1-2.4 .2-3.6 .2H104c-22.1 0-40-17.9-40-40V360c0-.9 0-1.9 .1-2.8V287.6H32c-18 0-32-14-32-32.1c0-9 3-17 10-24L266.4 8c7-7 15-8 22-8s15 2 21 7L564.8 231.5c8 7 12 15 11 24z"></path></symbol><symbol viewBox="0 0 512 512" id="my-icon-info"><!-- Font Awesome Pro 5.15.4 by @fontawesome - https://fontawesome.com License - https://fontawesome.com/license (Commercial License) --><path d="M256 8C119.043 8 8 119.083 8 256c0 136.997 111.043 248 248 248s248-111.003 248-248C504 119.083 392.957 8 256 8zm0 110c23.196 0 42 18.804 42 42s-18.804 42-42 42-42-18.804-42-42 18.804-42 42-42zm56 254c0 6.627-5.373 12-12 12h-88c-6.627 0-12-5.373-12-12v-24c0-6.627 5.373-12 12-12h12v-64h-12c-6.627 0-12-5.373-12-12v-24c0-6.627 5.373-12 12-12h64c6.627 0 12 5.373 12 12v100h12c6.627 0 12 5.373 12 12v24z"></path></symbol><symbol viewBox="0 0 36.92426 37" id="my-icon-jinyao-ma"><defs><style>.a{fill:url(#a);}</style><radialgradient id="a" cx="21.47998" cy="21.6519" r="18.36626" gradientunits="userSpaceOnUse"><stop offset="0" stop-color="#00f0fc"></stop><stop offset="1" stop-color="#4eabfc"></stop></radialgradient></defs><title>avatar.centered.light</title><path class="a" d="M20,24.65027a3.5,3.5,0,1,1,3,0v3.16882a6.5,6.5,0,1,0-3,0Z" transform="translate(-3 -3)"></path><path class="a" d="M20,30.87024v3.03137a11.48328,11.48328,0,0,0,3,0V30.87024a8.73473,8.73473,0,0,1-3,0Z" transform="translate(-3 -3)"></path><path class="a" d="M12,21.5a9.49686,9.49686,0,0,1,5-8.367V9.84851A12.47271,12.47271,0,0,0,14,31.478V35.0498a15.488,15.488,0,0,1,3-28.381V3.57428a18.47612,18.47612,0,0,0,0,35.85144V29.867A9.49686,9.49686,0,0,1,12,21.5Z" transform="translate(-3 -3)"></path><path class="a" d="M30.87024,20h9.054A18.49061,18.49061,0,0,0,21.5,3c-.50641,0-1.00391.03583-1.5.07574v3C20.494,6.02826,20.99359,6,21.5,6A15.49728,15.49728,0,0,1,36.326,17H33.14465A12.38859,12.38859,0,0,0,20,9.09839v3.03137A9.41851,9.41851,0,0,1,30.87024,20Z" transform="translate(-3 -3)"></path><path class="a" d="M36.92426,23H30.87183A9.5033,9.5033,0,0,1,26,29.867v3.28449A12.5225,12.5225,0,0,0,33.14685,26H36.326A15.49728,15.49728,0,0,1,21.5,37c-.50641,0-1.006-.02826-1.5-.07574v3c.49609.03991.99359.07574,1.5.07574A18.49066,18.49066,0,0,0,39.92426,23h-3Z" transform="translate(-3 -3)"></path></symbol><symbol viewBox="0 0 512 512" id="my-icon-key"><!--! Font Awesome Pro 6.2.0 by @fontawesome - https://fontawesome.com License - https://fontawesome.com/license (Commercial License) Copyright 2022 Fonticons, Inc. --><path d="M336 352c97.2 0 176-78.8 176-176S433.2 0 336 0S160 78.8 160 176c0 18.7 2.9 36.8 8.3 53.7L7 391c-4.5 4.5-7 10.6-7 17v80c0 13.3 10.7 24 24 24h80c13.3 0 24-10.7 24-24V448h40c13.3 0 24-10.7 24-24V384h40c6.4 0 12.5-2.5 17-7l33.3-33.3c16.9 5.4 35 8.3 53.7 8.3zm40-176c-22.1 0-40-17.9-40-40s17.9-40 40-40s40 17.9 40 40s-17.9 40-40 40z"></path></symbol><symbol viewBox="0 0 512 512" id="my-icon-settings"><!--! Font Awesome Pro 6.2.0 by @fontawesome - https://fontawesome.com License - https://fontawesome.com/license (Commercial License) Copyright 2022 Fonticons, Inc. --><path d="M495.9 166.6c3.2 8.7 .5 18.4-6.4 24.6l-43.3 39.4c1.1 8.3 1.7 16.8 1.7 25.4s-.6 17.1-1.7 25.4l43.3 39.4c6.9 6.2 9.6 15.9 6.4 24.6c-4.4 11.9-9.7 23.3-15.8 34.3l-4.7 8.1c-6.6 11-14 21.4-22.1 31.2c-5.9 7.2-15.7 9.6-24.5 6.8l-55.7-17.7c-13.4 10.3-28.2 18.9-44 25.4l-12.5 57.1c-2 9.1-9 16.3-18.2 17.8c-13.8 2.3-28 3.5-42.5 3.5s-28.7-1.2-42.5-3.5c-9.2-1.5-16.2-8.7-18.2-17.8l-12.5-57.1c-15.8-6.5-30.6-15.1-44-25.4L83.1 425.9c-8.8 2.8-18.6 .3-24.5-6.8c-8.1-9.8-15.5-20.2-22.1-31.2l-4.7-8.1c-6.1-11-11.4-22.4-15.8-34.3c-3.2-8.7-.5-18.4 6.4-24.6l43.3-39.4C64.6 273.1 64 264.6 64 256s.6-17.1 1.7-25.4L22.4 191.2c-6.9-6.2-9.6-15.9-6.4-24.6c4.4-11.9 9.7-23.3 15.8-34.3l4.7-8.1c6.6-11 14-21.4 22.1-31.2c5.9-7.2 15.7-9.6 24.5-6.8l55.7 17.7c13.4-10.3 28.2-18.9 44-25.4l12.5-57.1c2-9.1 9-16.3 18.2-17.8C227.3 1.2 241.5 0 256 0s28.7 1.2 42.5 3.5c9.2 1.5 16.2 8.7 18.2 17.8l12.5 57.1c15.8 6.5 30.6 15.1 44 25.4l55.7-17.7c8.8-2.8 18.6-.3 24.5 6.8c8.1 9.8 15.5 20.2 22.1 31.2l4.7 8.1c6.1 11 11.4 22.4 15.8 34.3zM256 336c44.2 0 80-35.8 80-80s-35.8-80-80-80s-80 35.8-80 80s35.8 80 80 80z"></path></symbol></svg>