<svg xmlns="http://www.w3.org/2000/svg" xmlns:xlink="http://www.w3.org/1999/xlink" viewBox="0 0 36.92426 37"><defs><style>.a{fill:url(#a);}</style><radialGradient id="a" cx="21.47998" cy="21.6519" r="18.36626" gradientUnits="userSpaceOnUse"><stop offset="0" stop-color="#00f0fc"/><stop offset="1" stop-color="#4eabfc"/></radialGradient></defs><title>avatar.centered.light</title><path class="a" d="M20,24.65027a3.5,3.5,0,1,1,3,0v3.16882a6.5,6.5,0,1,0-3,0Z" transform="translate(-3 -3)"/><path class="a" d="M20,30.87024v3.03137a11.48328,11.48328,0,0,0,3,0V30.87024a8.73473,8.73473,0,0,1-3,0Z" transform="translate(-3 -3)"/><path class="a" d="M12,21.5a9.49686,9.49686,0,0,1,5-8.367V9.84851A12.47271,12.47271,0,0,0,14,31.478V35.0498a15.488,15.488,0,0,1,3-28.381V3.57428a18.47612,18.47612,0,0,0,0,35.85144V29.867A9.49686,9.49686,0,0,1,12,21.5Z" transform="translate(-3 -3)"/><path class="a" d="M30.87024,20h9.054A18.49061,18.49061,0,0,0,21.5,3c-.50641,0-1.00391.03583-1.5.07574v3C20.494,6.02826,20.99359,6,21.5,6A15.49728,15.49728,0,0,1,36.326,17H33.14465A12.38859,12.38859,0,0,0,20,9.09839v3.03137A9.41851,9.41851,0,0,1,30.87024,20Z" transform="translate(-3 -3)"/><path class="a" d="M36.92426,23H30.87183A9.5033,9.5033,0,0,1,26,29.867v3.28449A12.5225,12.5225,0,0,0,33.14685,26H36.326A15.49728,15.49728,0,0,1,21.5,37c-.50641,0-1.006-.02826-1.5-.07574v3c.49609.03991.99359.07574,1.5.07574A18.49066,18.49066,0,0,0,39.92426,23h-3Z" transform="translate(-3 -3)"/></svg>